# xmcd
#
# Track frame offsets:
#   150
#   21312
#   40732
#   59727
#   77975
#   96497
#   112835
#   131460
#   149377
#   164337
#   186934
#   200397
#   214860
#   243722
#   260809
#   279287
#   296665
#   316415
#
# Disc length: 4452 seconds
#
# Revision: 0
# Processed by: cddbd v1.5.2PL0 Copyright (c) Steve Scherf et al.
# Submitted via: GXTranscoder 2.0.1939
#
DISCID=1b116212
DTITLE=Various Artist - 18 of beautifull voices in the world
DYEAR=2007
DGENRE=Alternative
TTITLE0=01 IL Divo - Un break My Heart
TTITLE1=02 Katherine Jenkins - Everything I Do
TTITLE2=03 Victtorio Grigolo - Bedshaped
TTITLE3=04 Andrea Bocelli - Besame Mucho
TTITLE4=05 The Choirboys - Tears In Heaven
TTITLE5=06 Triniti - Fields Of Gold
TTITLE6=07 G4 - Everybody Hurts
TTITLE7=08 Patrizio Buanne - Un Angelo
TTITLE8=09 Hayley Westenra - Pokarekare Ana
TTITLE9=10 Russell Watson - You Raise Me Up
TTITLE10=11 Luciano Pavorotti - Nessun Dorma
TTITLE11=12 Secret Garden - Nocturne
TTITLE12=13 All Angels - Agnus Dei
TTITLE13=14 Laura Fygi - What Are You Doing For The Rest Of
TTITLE14=15 Erin Boheme - Someone To Love
TTITLE15=16 Madeleine Peyroux - Careless Love
TTITLE16=17 Serge Gainsbourgh and Jane Birkin - J'Taime Moi N
TTITLE17=18 Ella Fitzgerald - My Funny Valentine
EXTD=
EXTT0=
EXTT1=
EXTT2=
EXTT3=
EXTT4=
EXTT5=
EXTT6=
EXTT7=
EXTT8=
EXTT9=
EXTT10=
EXTT11=
EXTT12=
EXTT13=
EXTT14=
EXTT15=
EXTT16=
EXTT17=
PLAYORDER=
